# xmcd
#
# Track frame offsets: 
#        150
#        18969
#        38044
#        56465
#        72786
#        91810
#        116506
#        143820
#        161807
#        182139
#
# Disc length: 2584 seconds
#
# Revision: 1
# Processed by: cddbd v1.5.2PL0 Copyright (c) Steve Scherf et al.
# Submitted via: ExactAudioCopy v0.99pb5
#
DISCID=7d0a160a
DTITLE=Kings Go Forth - The Outsiders Are Back
DYEAR=2010
DGENRE=Soul
TTITLE0=One Day
TTITLE1=I Don't Love You No More
TTITLE2=You're The One
TTITLE3=Fight With Love
TTITLE4=High On Your Love
TTITLE5=Paradise Lost
TTITLE6=Don't Take My Shadow
TTITLE7=Now We're Gone
TTITLE8=1000 Songs
TTITLE9=Get a Feeling
EXTD=
EXTT0=
EXTT1=
EXTT2=
EXTT3=
EXTT4=
EXTT5=
EXTT6=
EXTT7=
EXTT8=
EXTT9=
PLAYORDER=
